# xmcd
# 
# Track frame offsets:
#     150
#     17630
#     30687
#     46992
#     62592
#     76525
#     94000
#     110635
#     125320
#     139900
#     153590
# 
# Disc length: 2225
# 
# Revision: 6
# Processed by: cddbd v1.5.2PL0 Copyright (c) Steve Scherf et al.
# Submitted via: BonkEnc v1.0rc2
# 
DISCID=8408af0b
DTITLE=Sara Evans - No Place That Far
DYEAR=1998
DGENRE=Country
TTITLE0=The Great Unknown
TTITLE1=Cryin' Game
TTITLE2=No Place That Far
TTITLE3=I Thought I'd See Your Face Again
TTITLE4=Fool, I'm A Woman
TTITLE5=Time Won't Tell
TTITLE6=The Knot Comes Untied
TTITLE7=Love, Don't Be A Stranger
TTITLE8=These Days
TTITLE9=Cupid
TTITLE10=There's Only One
EXTD=Musicians:\n\tJ.T. Corenflos - Electric Guitar, Electric 12-String Guitar\n\tJohn Hobbs - Piano, Hammond B-3 Organ, Synthesizer\n\tEddie Bayers -Drums, Tanbourine\n\tLarry Byrom - Acoustic Guitar\n\tLonnie Wilson - Drums\n\tLary PAxton - Bass Guitar,
EXTD=6-String Bass Guitar\n\tSonny Garrish -Dobro, Steel Guitar\n\tLarry Frankline - Fiddle, Mandolin\n\tB. James Lowry - Acoustic Guitar, Gut String Guitar\n\tChris Carmichael - Fiddle\nTerry McMillan - Percussion\n\tRandy McCormick - Synthesizer\n\tBil
EXTD=ly Sanford - Electric Guitar\n\tJim Hurst - Acoustic Guitar\n\nBackground Vocalists:\n\tSara Evans, Alison Krauss, Jamie O'Hara, George Jones, Vince Gill, Martina\nMcBride, Larry Marrs, Curtis Young, Liana Manis, Nennis Wislson, Lesley\nLyons, Jim Hu
EXTD=rst, Ashley Evans, and Dan Tyminski. YEAR: 1998
EXTT0=
EXTT1=
EXTT2=
EXTT3=
EXTT4=
EXTT5=
EXTT6=
EXTT7=
EXTT8=
EXTT9=
EXTT10=
PLAYORDER=
